<svg xmlns="http://www.w3.org/2000/svg" xmlns:xlink="http://www.w3.org/1999/xlink" width="265.336" height="47" viewBox="0 0 265.336 47"><defs><style>.a{fill:#cd0067;}.b,.p{fill:#fff;}.c{fill:#0056a2;}.d{fill:#fcbf31;}.e,.f{fill:#cd353e;}.e,.g,.o,.p,.q{fill-rule:evenodd;}.g{fill:#b1b1b1;}.h{fill:#ee7f00;}.i{fill:url(#a);}.j{fill:#ff5f00;}.k{fill:#eb001b;}.l{fill:#f79e1b;}.m{fill:#004e91;}.n{fill:#fd0;}.o{fill:#000268;}.q{fill:#ff0007;}.r{fill:#cc1f81;}.s{fill:none;}</style><linearGradient id="a" x1="-1.767" y1="11.464" x2="-1.766" y2="11.451" gradientUnits="objectBoundingBox"><stop offset="0" stop-color="#222357"/><stop offset="1" stop-color="#254aa5"/></linearGradient></defs><g transform="translate(-13 -0.9)"><g transform="translate(24)"><g transform="translate(-5 0)"><rect width="3.5" height="5.9" transform="translate(84.8 11.7)"/><path d="M88.6,8.8a2,2,0,1,1-2-2A2.006,2.006,0,0,1,88.6,8.8Z"/><path d="M95.1.9H82.4V20.2H95.1a9.24,9.24,0,0,0,6.5-2.1c1.9-1.6,2.9-4.2,2.9-7.6a11.368,11.368,0,0,0-.8-4.3,8.125,8.125,0,0,0-2.1-3A9.376,9.376,0,0,0,95.1.9Zm-.3,1.2A8.879,8.879,0,0,1,100.7,4c1.6,1.4,2.4,3.6,2.4,6.4,0,5.6-2.7,8.4-8.4,8.4H83.5V2.1Z"/><path class="a" d="M94.5,17.6H90V3.7h4.3c3.7,0,7.7,1.5,7.7,7,0,5.8-4,6.9-7.7,6.9Z"/><path class="b" d="M89.2,7.3h1.2c.3,0,.5,0,.6.1a2.186,2.186,0,0,1,.5.3,2.186,2.186,0,0,1,.3.5,1.949,1.949,0,0,1,.1.8,1.483,1.483,0,0,1-.1.7,2.092,2.092,0,0,1-.4.6,2.186,2.186,0,0,1-.5.3,3.536,3.536,0,0,1-.6.1H89.2Zm.7.6v2.2h.9c.1,0,.2-.1.3-.1.1-.1.1-.2.2-.3,0-.1.1-.4.1-.6,0-.3,0-.5-.1-.6,0-.1-.1-.2-.2-.3-.1-.2-.2-.3-.4-.3h-.8Z"/><path class="b" d="M89.1,7.2v3.5h1.4c.3,0,.5,0,.6-.1a2.186,2.186,0,0,0,.5-.3,2.092,2.092,0,0,0,.4-.6,1.7,1.7,0,0,0,.1-.7,1.949,1.949,0,0,0-.1-.8l-.3-.6a.864.864,0,0,0-.6-.3c-.2,0-.4-.1-.7-.1H89.1Zm1.3.2c.3,0,.5,0,.6.1a.764.764,0,0,1,.5.2,2.186,2.186,0,0,1,.3.5,1.949,1.949,0,0,1,.1.8,1.483,1.483,0,0,1-.1.7l-.3.6a.758.758,0,0,1-.4.2,3.536,3.536,0,0,1-.6.1H89.3V7.4Z"/><path class="b" d="M89.8,7.8v2.4h1c.1,0,.2-.1.3-.2a.52.52,0,0,0,.2-.4c0-.2.1-.4.1-.6,0-.3,0-.5-.1-.6a.52.52,0,0,0-.2-.4c-.1-.1-.2-.2-.3-.2h-1Zm.4.1h.5c.1.1.2.1.3.2s.1.2.2.3a3.536,3.536,0,0,1,.1.6,1.268,1.268,0,0,1-.1.6c0,.1-.1.2-.2.3H90v-2Z"/><path class="b" d="M92.8,10.6V7.3h2.5v.6H93.5v.7h1.7v.6H93.5v.9h1.9v.6H92.8Z"/><path class="b" d="M92.7,7.2v3.5h2.7V10H93.5V9.3h1.7V8.5H93.5V7.9h1.8V7.2Zm2.5.2v.4H93.4v.9h1.7v.4H93.4v1.1h1.9v.4H92.9V7.4Z"/><path class="b" d="M99.1,10.6h-.7l-.3-.8H96.8l-.3.8h-.7l1.3-3.3h.7ZM97.8,9.3l-.5-1.2-.5,1.2Z"/><path class="b" d="M97,7.2l-1.4,3.5h.9a4.116,4.116,0,0,1,.3-.8H98a6.89,6.89,0,0,0,.3.8h.9L97.8,7.2Zm.7.2c0,.1,1.2,2.9,1.3,3.2h-.5a6.89,6.89,0,0,0-.3-.8H96.7a4.116,4.116,0,0,1-.3.8h-.5c.1-.2,1.2-3.1,1.2-3.2Z"/><path class="b" d="M96.8,9.4H98l-.6-1.6Zm.6-1.1a4.708,4.708,0,0,1,.3.9H97A3.92,3.92,0,0,0,97.4,8.3Z"/><path class="b" d="M99.7,10.6V7.3h.7V10h1.7v.6Z"/><path class="b" d="M99.6,7.2v3.5h2.5V10h-1.7V7.3h-.8Zm.6.2v2.7h1.7v.4H99.7V7.4Z"/></g><g transform="translate(0 0.801)"><path class="c" d="M120.5,8.9h-2.2c0-.4,0-.6-.1-.7-.1-.2-.5-.3-1.1-.3a2.332,2.332,0,0,0-1.1.2c-.2.1-.3.3-.3.7a.845.845,0,0,0,.2.6.749.749,0,0,0,.5.1h.4a15.259,15.259,0,0,0,1.8.1,2.981,2.981,0,0,1,1.6.6,1.905,1.905,0,0,1,.5,1V12a4.872,4.872,0,0,1-.2,1.5,1.8,1.8,0,0,1-1.6,1.1,7.115,7.115,0,0,1-1.6.1,14.226,14.226,0,0,1-2.6-.2,1.669,1.669,0,0,1-1.2-1.1V12h2.2v.2c0,.4.1.6.3.7a.9.9,0,0,0,.5.1h.8c.4,0,.7,0,.8-.1a.781.781,0,0,0,.4-.4v-.4c0-.4-.1-.6-.4-.7a11.925,11.925,0,0,0-1.5-.1c-.7,0-1.2-.1-1.5-.1a1.773,1.773,0,0,1-1.4-.8,6.267,6.267,0,0,1-.2-1.6,4.438,4.438,0,0,1,.2-1.3,2.177,2.177,0,0,1,.5-.8,2.919,2.919,0,0,1,1.4-.5c.5,0,1-.1,1.6-.1a8.754,8.754,0,0,1,2,.2,2,2,0,0,1,1.4,2.1C120.6,8.6,120.5,8.7,120.5,8.9Z"/><path class="c" d="M130.1,14.9V6.1h4.4a5.313,5.313,0,0,1,1.4.1,1.98,1.98,0,0,1,1.4,1.4,7.18,7.18,0,0,1,.2,1.7,7.754,7.754,0,0,1-.2,1.9,1.937,1.937,0,0,1-1.7,1.3h-3.1v2.2h-2.4Zm2.4-4.3H134a3.784,3.784,0,0,0,.8-.1,1.069,1.069,0,0,0,.3-.5V9.3a1.719,1.719,0,0,0-.1-.8,1.024,1.024,0,0,0-.6-.5h-1.9Z"/><path class="c" d="M142.5,13.3h-3.1l-.4,1.5h-2.5l2.6-8.7h3.5l2.6,8.7h-2.4Zm-.5-1.6-1.1-3.8-1.1,3.8Z"/><path class="d" d="M126.9,7.4a3.043,3.043,0,0,1,2.4,1.1l.5-1.1a4.767,4.767,0,0,0-3.1-1.2,4.5,4.5,0,0,0-4.1,2.7h-1l-.6,1.2h1.3v.7h-.6l-.6,1.2h1.5a4.432,4.432,0,0,0,4,2.6,5.2,5.2,0,0,0,2.5-.7V12.4a3.356,3.356,0,0,1-2.3,1.1,3.263,3.263,0,0,1-2.6-1.4h3.3l.6-1.2h-4.3v-.8h4.7l.6-1.2h-4.8A2.76,2.76,0,0,1,126.9,7.4Z"/><path class="c" d="M126.9,7.4a3.194,3.194,0,0,1,2.4,1.1h0V8.4l.5-1.1h0a4.3,4.3,0,0,0-3.1-1.2,4.376,4.376,0,0,0-2.5.8,4.469,4.469,0,0,0-1.6,2h-1l-.6,1.2v.1h1.4V11h-.6l-.6,1.2v.1h1.6a4.413,4.413,0,0,0,4.1,2.6,5.2,5.2,0,0,0,2.5-.7h0V12.6l-.1.1a2.9,2.9,0,0,1-2.3,1,3.143,3.143,0,0,1-2.6-1.4v.1h3.1l.6-1.2v-.1h-4.4v-.8h4.8l.6-1.2V9h-4.9v.1A3.055,3.055,0,0,1,126.9,7.4ZM124.2,9H129V8.9l-.6,1.2h-4.7v.8H128v-.1l-.5,1.4h-3.3v.1a3.143,3.143,0,0,0,2.6,1.4,2.845,2.845,0,0,0,2.3-1.1H129v1.5h0a4.2,4.2,0,0,1-2.4.7,4.272,4.272,0,0,1-4-2.6h-1.5v.1l.6-1.2h.6v-.7H121v.1l.6-1.2h1a4.213,4.213,0,0,1,1.6-1.9,4.3,4.3,0,0,1,2.5-.7,4.234,4.234,0,0,1,3,1.2h0L129.2,9h.1a3.3,3.3,0,0,0-2.4-1.2A2.025,2.025,0,0,0,124.2,9Z"/></g><g transform="translate(5 0.9)"><path class="e" d="M161.2,11.5h3.2l-.2.7-2.6,2.5h2.2l-.1.8h-3.3l.2-.8,2.5-2.4h-2Z"/><path class="e" d="M157.8,10.3c-.1-.1-.2-.1-.3-.2-.1,0-.2-.1-.4-.1h-3l-.9,5.5h.9l.3-2.1h1.7a3.421,3.421,0,0,0,1.1-.2,1.115,1.115,0,0,0,.6-.8,1.213,1.213,0,0,0,.1-.5c0-.3.1-.6.1-.8v-.2a.988.988,0,0,0-.2-.6Zm-.7.9-.2,1c0,.2-.2.3-.4.3a2.142,2.142,0,0,1-.6.1h-1.4l.3-1.8h2a.367.367,0,0,1,.3.1c0,.1.1.1.1.2Z"/><path class="e" d="M168.6,9.9h.8l-.9,5.6h-.8Z"/><path class="e" d="M173,11.5h.8l.3,2.8,1.2-2.8h1l.3,2.8,1.2-2.8h.8l-1.7,4h-1l-.3-2.8-1.2,2.8h-1Z"/><path class="f" d="M167.1,11.5a2.787,2.787,0,0,0-1-.1h-.6a1.588,1.588,0,0,0-.9.5,3.438,3.438,0,0,0-.4,1.3,4.513,4.513,0,0,0-.1,1.3,1.374,1.374,0,0,0,.5.8,3.2,3.2,0,0,0,.7.1,2.784,2.784,0,0,0,1.2-.1,1.454,1.454,0,0,0,.8-.5,1.439,1.439,0,0,1,.2-.3.774.774,0,0,0,.1-.3l.1-.2h-.9s0,.6-.5.6a1.858,1.858,0,0,1-.8,0c-.1,0-.6,0-.5-.4h0c0-.5.1-.6.1-.6h2.7l.1-.7C167.9,12.3,167.8,11.7,167.1,11.5Zm-.2,1.5h-1.8l.1-.3a1.439,1.439,0,0,1,.2-.3.6.6,0,0,1,.4-.1h.9a.215.215,0,0,1,.2.2C167,12.6,166.9,13,166.9,13Z"/><path class="f" d="M164.9,14.3Z"/><path class="f" d="M169.9,14.3Z"/><path class="f" d="M172.2,11.5a2.787,2.787,0,0,0-1-.1h-.6a1.588,1.588,0,0,0-.9.5,3.438,3.438,0,0,0-.4,1.3,4.513,4.513,0,0,0-.1,1.3,1.374,1.374,0,0,0,.5.8,3.2,3.2,0,0,0,.7.1,2.784,2.784,0,0,0,1.2-.1,1.454,1.454,0,0,0,.8-.5,1.439,1.439,0,0,1,.2-.3.774.774,0,0,0,.1-.3l.1-.2h-.9s0,.6-.5.6a1.858,1.858,0,0,1-.8,0c-.1,0-.6,0-.5-.4h0c0-.5.1-.6.1-.6h2.7l.1-.7C172.9,12.3,172.9,11.7,172.2,11.5ZM172,13h-1.8l.1-.3a1.439,1.439,0,0,1,.2-.3.6.6,0,0,1,.4-.1h.9a.215.215,0,0,1,.2.2C172,12.6,172,13,172,13Z"/><path class="e" d="M179.6,11.5l.5,2.9,1.5-2.9h.8l-2.2,4.2s-.4.8-.6.9a.864.864,0,0,1-.6.3h-.7l.1-.7a.781.781,0,0,0,.5,0,1.4,1.4,0,0,0,.4-.4l.1-.2-.8-4,1-.1Z"/><path class="g" d="M182.7,11.9h.9l.1-.3s.1-.6.3-.7c.1,0,.2-.1.3-.1h.7a2.769,2.769,0,0,1,.9.1c.4,0,.3.4.3.4l-.1.5a1,1,0,0,1-.1.4c-.1.1-.3.2-.4.3-.3.1-1.3.3-1.3.3l-.8.2a1.259,1.259,0,0,0-.7.4,1.2,1.2,0,0,0-.4.8c0,.2-.2,1.4-.2,1.4h4.1l.1-.8h-3.3l.1-.3a.781.781,0,0,1,.2-.5,1.238,1.238,0,0,1,.3-.2,4.076,4.076,0,0,1,.7-.2l1.2-.3a2.058,2.058,0,0,0,.9-.5,2.881,2.881,0,0,0,.4-1.1,2.645,2.645,0,0,0,0-.9,1.47,1.47,0,0,0-.5-.6,2.749,2.749,0,0,0-1.3-.2,3.2,3.2,0,0,0-1.5.2.988.988,0,0,0-.7.7,5.756,5.756,0,0,0-.2,1Z"/><path class="g" d="M190.5,13.4l.6-3.5h-1l-3.2,3.4-.1.9h2.8l-.2,1.2h.9l.2-1.2h.8l.1-.8Zm-.8,0h-1.8l2.2-2.3Z"/><path class="g" d="M159.6,10.4h2.6s.6-.5,1-.8,1.2-.8,1.2-.8l-1.5-.7s-1.3.8-1.8,1.1l-1.5,1.2Z"/><path class="g" d="M165.3,8.3l-1.2-.8a26.813,26.813,0,0,1,2.6-1.2,20.158,20.158,0,0,1,2.3-.8l.2,1.2s-1.4.5-2.2.9a6.2,6.2,0,0,0-1.7.7Z"/><path class="g" d="M170,6.4l-.2-1.2s1.5-.4,2.9-.7a24.9,24.9,0,0,1,3.2-.4L175.3,6a13.956,13.956,0,0,0-3.1,0,12.048,12.048,0,0,0-2.2.4Z"/><path class="g" d="M176.3,6.1l1-2.1a32.88,32.88,0,0,1,4.2.3,37.745,37.745,0,0,1,3.7.8l-4.9,2.6a13.049,13.049,0,0,0-2.6-1.2c-.8-.2-1.4-.4-1.4-.4Z"/><path class="g" d="M181.1,8.2l1.1.8H191a1.3,1.3,0,0,0-.3-.7c-.1-.3-.4-.5-.7-.8a8.115,8.115,0,0,0-.8-.6,19.832,19.832,0,0,0-2-1.1l-6.1,2.4Z"/><path class="f" d="M160.2,11.5a1.613,1.613,0,0,0-.9.3v-.3h-.9l-.7,4h.9l.4-2.2a1.178,1.178,0,0,1,1.1-1h.5l.1-.8Z"/></g><g transform="translate(281.387 -35.601)"><path class="h" d="M-36.563,45.03a1.287,1.287,0,0,1-1.375.935h-.385l.66-1.814h.385c.715.055.99.22.715.88m1.979-1.649c-.33-.495-.99-.715-2.089-.715h-2.474l-2.694,7.423h2.254l.99-2.584c.055.11.6,2.584.6,2.584h2.364A23.809,23.809,0,0,0-36.4,47.5a5.357,5.357,0,0,0-.275-.6,3.329,3.329,0,0,0,2.034-1.869,1.492,1.492,0,0,0,.055-1.649m-22.763-.715h-4.179a4.183,4.183,0,0,0-1.869.275,3.253,3.253,0,0,0-1.485,2.089,1.634,1.634,0,0,0-.11.66.817.817,0,0,0,.11.495,3.022,3.022,0,0,0,.385.495,2.134,2.134,0,0,0,.6.33.667.667,0,0,0,.275.055,1.294,1.294,0,0,0,.44.11c.055,0,.11.055.22.11l.165.165c0,.055.055.11.055.165a.2.2,0,0,1-.055.165c-.055.165-.11.275-.275.33a2.154,2.154,0,0,1-.715.11h-4.344l-.66,1.924h4.618a4.9,4.9,0,0,0,1.979-.33A3.138,3.138,0,0,0-60.37,47.5a1.746,1.746,0,0,0-.11-1.21,1.7,1.7,0,0,0-1.045-.715.569.569,0,0,0-.22-.055,1.019,1.019,0,0,0-.385-.11.549.549,0,0,1-.275-.22.7.7,0,0,1-.055-.33.549.549,0,0,1,.22-.275,1.1,1.1,0,0,1,.495-.11h2.694c0-.055.055-.055.055-.11a4.115,4.115,0,0,1,1.649-1.7"/><path class="h" d="M-55.367,46.35c-.6,1.759-1.1,2.2-1.759,2.2h0c-.66,0-.88-.44-.275-2.144.44-1.265,1.1-2.144,1.814-2.144h0c.66-.055.825.385.22,2.089m2.144-3.024a2.1,2.1,0,0,0-1.869-.825,3.62,3.62,0,0,0-1.649.385,4.618,4.618,0,0,0-1.979,1.759A7.516,7.516,0,0,0-59.6,46.4a3.312,3.312,0,0,0,0,2.914,2.191,2.191,0,0,0,1.924.825h0q3.051,0,4.454-3.959a3.253,3.253,0,0,0,0-2.859m8.027-.66h-4.289a2.541,2.541,0,0,0-2.529,1.759l-2.034,5.663h2.254l1.045-2.914h1.979l.55-1.539H-50.2l.33-.88a.435.435,0,0,1,.44-.275h2.309c0-.055.055-.055.055-.11a6.669,6.669,0,0,1,1.869-1.7m1.979,3.684c-.6,1.759-1.1,2.2-1.759,2.2h0c-.66,0-.88-.44-.275-2.144.44-1.265,1.1-2.144,1.814-2.144h0c.66-.055.825.385.22,2.089m2.144-3.024a2.1,2.1,0,0,0-1.869-.825,3.62,3.62,0,0,0-1.649.385,4.618,4.618,0,0,0-1.979,1.759,5.865,5.865,0,0,0-.88,1.759,3.312,3.312,0,0,0,0,2.914,2.191,2.191,0,0,0,1.924.825h0q3.051,0,4.454-3.959a3.253,3.253,0,0,0,0-2.859"/><path class="h" d="M-34.474,42.666a1.285,1.285,0,0,1,.385.385,1.918,1.918,0,0,1,.33,1.375h1.375l-2.034,5.663h2.034l2.034-5.663h2.639l.66-1.759Z"/></g><g transform="translate(-15 -0.099)"><path class="i" d="M23.6,8.9c0,1.7,1.5,2.7,2.7,3.2,1.2.6,1.6,1,1.6,1.5,0,.8-1,1.1-1.8,1.2a8,8,0,0,1-3.2-.7l-.6,2.6a9.425,9.425,0,0,0,3.4.6c3.2,0,5.3-1.6,5.3-4.1,0-3.1-4.3-3.3-4.3-4.7,0-.4.4-.9,1.3-1A5.451,5.451,0,0,1,31,8l.5-2.5A5.855,5.855,0,0,0,28.8,5c-3,0-5.1,1.6-5.2,3.9M36.9,5.2a1.291,1.291,0,0,0-1.3.9L31,17h3.2l.6-1.8h3.9l.4,1.8H42L39.5,5.2H36.9m.4,3.2.9,4.5H35.7l1.6-4.5M19.7,5.2,17.2,17h3.1L22.8,5.1H19.7m-4.5.1L12,13.3,10.7,6.4A1.322,1.322,0,0,0,9.3,5.2H4.1L4,5.5a10.542,10.542,0,0,1,3,1c.5.2.6.5.7,1L10.1,17h3.2l5-11.9H15.2"/></g><g transform="translate(-10 0.601)"><rect class="j" width="6.6" height="11.9" transform="translate(58.9 4.9)"/><path class="k" d="M59.4,10.8a7.39,7.39,0,0,1,2.9-5.9,7.621,7.621,0,0,0-4.7-1.6,7.5,7.5,0,1,0,0,15,7.621,7.621,0,0,0,4.7-1.6A7.39,7.39,0,0,1,59.4,10.8Z"/><path class="l" d="M74.5,10.8A7.49,7.49,0,0,1,67,18.3a7.621,7.621,0,0,1-4.7-1.6,7.39,7.39,0,0,0,2.9-5.9,7.482,7.482,0,0,0-3-5.9,7.621,7.621,0,0,1,4.7-1.6A7.512,7.512,0,0,1,74.5,10.8Z"/><path class="l" d="M73.7,15.5v-.2h0v.2Zm.5,0v-.3h-.1l-.1.2v-.2h-.1v.3H74v-.2l.1.2h.1l.1-.2-.1.2Z"/></g></g><g transform="translate(-80.9 -4)"><g transform="translate(-95 30.7)"><path class="m" d="M279.7,5.1h-8.2l-.8.9L268,9.1h0l-.8.9h-8.1l.8-1,.4-.5.8-1h-3.7a1.24,1.24,0,0,0-1.2,1.3h0v2.7a1.309,1.309,0,0,0,1.2,1.3h14.3a3.333,3.333,0,0,0,2.1-.9L276,9.4Z"/><path class="n" d="M281.4,2.2a1.24,1.24,0,0,1,1.2,1.3V6.2a1.309,1.309,0,0,1-1.2,1.3h-3.7l.8-.9h0l.4-.5.8-.9h-8.2l-4.4,5h-8.2l5.9-6.6.2-.3a3.333,3.333,0,0,1,2.1-.9h.3l14-.2Z"/><path class="m" d="M282.6,18.6v-.4c0-.1,0-.1-.1-.1h-.4V16.4h.5v-.6h-.5v-.6H282l-.6.1h-.1v.5h-.5v.5h.1l.4.1v1.5c0,.2,0,.3.1.4,0,.1.1.2.2.3a.367.367,0,0,0,.3.1h.6c-.1,0,0,0,.1-.1h0m-2.2,0V18h-.9a.1.1,0,0,1-.1-.1.349.349,0,0,1-.1-.2v-1c0-.1.1-.1.1-.2l.1-.1h.9v-.5h-.1a.367.367,0,0,1-.3-.1h-.4a1.4,1.4,0,0,0-.9.3,1.327,1.327,0,0,0-.3,1v.4a1.69,1.69,0,0,0,.3,1,1.222,1.222,0,0,0,.9.3h.4a.367.367,0,0,0,.3-.1c.1,0,.1,0,.1-.1h0m-3.3-.6c-.1,0-.1.1-.2.1h-.4a.349.349,0,0,1-.1-.2h0v-.2a.1.1,0,0,1,.1-.1.1.1,0,0,0,.1-.1h.5V18Zm.8-1.2a.9.9,0,0,0-.1-.5c-.1-.1-.1-.2-.2-.3s-.2-.1-.4-.2a4.331,4.331,0,0,0-.5-.1h-.5c-.2,0-.3,0-.4.1a.1.1,0,0,0-.1.1v.5h.8a.367.367,0,0,1,.3.1c.1,0,.1.1.1.3V17h-.3a1.69,1.69,0,0,0-.9.2.779.779,0,0,0-.3.7h0c0,.2,0,.3.1.4s.1.2.2.3a.367.367,0,0,0,.3.1h.3a.6.6,0,0,0,.4-.1c.1-.1.2-.1.3-.2v.2h.8v-.1l.1-1.7Zm-2.7,1.8v-.4c0-.1,0-.1-.1-.1h-.3V16.4h.5v-.6h-.5v-.6h-.1l-.6.1H274v.5h-.6v.5h.1l.4.1v1.5c0,.2,0,.3.1.4,0,.1.1.2.2.3a.367.367,0,0,0,.3.1h.6c-.1,0,0,0,.1-.1h0m-2.2,0V16.4c0-.1-.1-.3-.1-.4s-.2-.2-.3-.2a.749.749,0,0,0-.5-.1c-.2,0-.3,0-.4.1a.758.758,0,0,0-.4.2v-.2h-.8v2.9h.8V16.6c.1,0,.2-.1.3-.1h.4c.1,0,.1,0,.1.1a.1.1,0,0,0,.1.1v2h.7l.1-.1h0m-3.9-1.2c0,.4-.1.6-.5.6-.1,0-.3-.1-.3-.2a4.331,4.331,0,0,1-.1-.5v-.4a.749.749,0,0,1,.1-.5c.1-.1.2-.2.3-.2.3,0,.5.2.5.6Zm.9-.3a.749.749,0,0,0-.1-.5c-.1-.2-.1-.3-.2-.4a1.381,1.381,0,0,0-.4-.3.9.9,0,0,0-.5-.1.749.749,0,0,0-.5.1c-.2.1-.3.1-.4.3a.758.758,0,0,0-.2.4.9.9,0,0,0-.1.5v.4a.749.749,0,0,0,.1.5c.1.2.1.3.2.4a1.381,1.381,0,0,0,.4.3.9.9,0,0,0,.5.1.749.749,0,0,0,.5-.1c.2-.1.3-.1.4-.3a.758.758,0,0,0,.2-.4.9.9,0,0,0,.1-.5Zm-2.9,1.5V18h-.9a.1.1,0,0,1-.1-.1.349.349,0,0,1-.1-.2v-1c0-.1.1-.1.1-.2l.1-.1h.9v-.5H267a.367.367,0,0,1-.3-.1h-.4a1.4,1.4,0,0,0-.9.3,1.327,1.327,0,0,0-.3,1v.4a1.69,1.69,0,0,0,.3,1,1.222,1.222,0,0,0,.9.3h.4a.367.367,0,0,0,.3-.1c.1,0,.1,0,.1-.1h0m-2.4,0V16.4c0-.1-.1-.3-.1-.4-.1-.1-.2-.2-.3-.2a.749.749,0,0,0-.5-.1c-.2,0-.3,0-.4.1a.758.758,0,0,0-.4.2v-.2h-.8v2.9h.8V16.6c.1,0,.2-.1.3-.1h.4c.1,0,.1,0,.1.1a.1.1,0,0,0,.1.1v2h.7l.1-.1h0m-4-.6c-.1,0-.1.1-.2.1h-.4a.349.349,0,0,1-.1-.2h0v-.2a.1.1,0,0,1,.1-.1l.1-.1h.5Zm.8-1.2a.9.9,0,0,0-.1-.5c-.1-.1-.1-.2-.2-.3s-.2-.1-.4-.2a4.331,4.331,0,0,0-.5-.1h-.5c-.2,0-.3,0-.4.1a.1.1,0,0,0-.1.1v.5h.8a.367.367,0,0,1,.3.1c.1,0,.1.1.1.3V17h-.3a1.69,1.69,0,0,0-.9.2,1.143,1.143,0,0,0-.3.7h0c0,.2,0,.3.1.4s.1.2.2.3a.367.367,0,0,0,.3.1h.3a.6.6,0,0,0,.4-.1c.1,0,.2-.1.3-.2v.2h.8v-.1l.1-1.7Zm-3.6.8a1.007,1.007,0,0,1-.1.3.749.749,0,0,1-.5.1h-.4v-.9h.6c.2,0,.3,0,.4.1v.4Zm0-1.5v.2c0,.1,0,.1-.1.1a.349.349,0,0,1-.2.1h-.9v-.9h.4c.3,0,.4,0,.5.1.2.1.3.2.3.4Zm.9,1.5a.9.9,0,0,0-.1-.5c-.1-.2-.2-.2-.3-.3l.3-.3a.6.6,0,0,0,.1-.4V16a.749.749,0,0,0-.1-.5l-.3-.3c-.1-.1-.3-.1-.5-.2-.2,0-.4-.1-.7-.1h-1c-.1,0-.2,0-.2.1a.349.349,0,0,0-.1.2v3.1c0,.1,0,.2.1.2a.349.349,0,0,0,.2.1h1a1.268,1.268,0,0,0,.6-.1.764.764,0,0,0,.5-.2c.1-.1.3-.2.3-.3.1,0,.2-.1.2-.4Z"/></g><g transform="translate(-92 30.4)"><path class="o" d="M294.3,6a2.476,2.476,0,0,1,2.5-2.5h27.4A2.476,2.476,0,0,1,326.7,6v9a2.476,2.476,0,0,1-2.5,2.5H296.8a2.476,2.476,0,0,1-2.5-2.5V6Z"/><path class="p" d="M295.3,6.1v8.8a1.58,1.58,0,0,0,1.6,1.6h14.3V4.6H296.9a1.561,1.561,0,0,0-1.6,1.5Zm19.6,4.4c0,.6-.3.9-.7.9a.808.808,0,0,1-.7-.9.808.808,0,0,1,.7-.9C314.7,9.6,314.9,10,314.9,10.5Zm-2.6,3.2h1.2V11.8h0a1.255,1.255,0,0,0,1.1.6,1.722,1.722,0,0,0,1.6-1.9,1.669,1.669,0,0,0-1.5-1.8,1.269,1.269,0,0,0-1.3.7h0V8.7h-1.1v5Zm5.5-2.6c0-.3.3-.5.7-.5h.5a.773.773,0,0,1-.7.8A.338.338,0,0,1,317.8,11.1Zm2.5,1.1a2.485,2.485,0,0,1-.1-.8V10.1c0-1.1-.8-1.5-1.7-1.5a5.9,5.9,0,0,0-1.4.2v.8a2.016,2.016,0,0,1,1.1-.3c.4,0,.8.1.8.6h-.6c-.6,0-1.8.1-1.8,1.2,0,.8.6,1.1,1.3,1.1a1.255,1.255,0,0,0,1.1-.6h0v.6Zm.5,1.5a1.949,1.949,0,0,0,.8.1c1.1,0,1.4-.9,1.7-1.7l1.3-3.3h-1.2l-.7,2.3h0l-.8-2.3h-1.3l1.4,3.6a.634.634,0,0,1-.6.5.9.9,0,0,1-.5-.1Z"/><path class="q" d="M298.3,10.5c0-.5.2-.9.7-.9a.789.789,0,0,1,.8.8.817.817,0,0,1-.8.9A.713.713,0,0,1,298.3,10.5Zm2.6-1.8h-1.1v.6h0a1.525,1.525,0,0,0-1.2-.7c-1.1,0-1.6.8-1.6,1.8a1.634,1.634,0,0,0,1.6,1.8,1.426,1.426,0,0,0,1.2-.6h0v.2c0,.7-.4,1-1.1,1a2.376,2.376,0,0,1-1.2-.3l-.1,1a4.438,4.438,0,0,0,1.3.2c1.4,0,2.1-.5,2.1-1.9V8.7ZM303,7.3h-1.2v.9H303Zm-1.3,4.9h1.2V8.7h-1.2Zm4.6-3.5h-.4a1.087,1.087,0,0,0-1,.7h0V8.7h-1.1v3.5H305V10.7c0-.7.3-1.1.9-1.1h.4Zm2.1,2.8c-.6,0-.8-.5-.8-1s.2-1,.8-1,.8.5.8,1S309,11.5,308.4,11.5Zm0,.8a1.81,1.81,0,1,0-2-1.8C306.4,11.7,307.2,12.3,308.4,12.3Z"/></g><g transform="translate(246 30.251)"><path class="r" d="M5.477,18.95a1.631,1.631,0,0,0,0,.172v4.136c0,.216-.034.246-.25.246H3.435c-.157,0-.209-.056-.205-.213V15.77a.579.579,0,0,1,.086-.3A1.284,1.284,0,0,1,4.5,14.792a1.53,1.53,0,0,1,.881.2,1.265,1.265,0,0,1,.373.336c.25.418.459.859.691,1.288.134.25.28.493.411.747.09.175.157.373.239.538.019.049.045.1.067.146l.5.956a.336.336,0,0,0,.067.082c0-.078.019-.119.019-.161V15.21c0-.269,0-.284.291-.284h1.7c.22,0,.246.026.246.246v7.488a.784.784,0,0,1-.157.418,1.172,1.172,0,0,1-.907.575,1.213,1.213,0,0,1-1.034-.4,3.382,3.382,0,0,1-.4-.552c-.2-.351-.373-.709-.575-1.071-.332-.638-.661-1.28-.989-1.919-.123-.239-.25-.474-.373-.709C5.54,18.973,5.518,18.973,5.477,18.95Z" transform="translate(-2.024 -9.268)"/><path class="r" d="M27.364,20.766c-.052-.037-.086-.078-.127-.09a1.527,1.527,0,0,0-1.12.052,1.306,1.306,0,0,0-.653.747,2.322,2.322,0,0,0-.172.862,2.012,2.012,0,0,0,.261.844,1.366,1.366,0,0,0,.246.336,1.075,1.075,0,0,0,.873.373,1.53,1.53,0,0,0,.817-.142A2.31,2.31,0,0,0,28.342,23c.1-.19.228-.373.336-.552.052-.09.108-.086.19-.045l1.493.747a.213.213,0,0,1,.1.321,5.972,5.972,0,0,1-.526.907,4.352,4.352,0,0,1-.683.747,6.345,6.345,0,0,1-1.09.7,3.852,3.852,0,0,1-.508.168,5.532,5.532,0,0,1-1.665.075,1.993,1.993,0,0,1-.683-.194,2.788,2.788,0,0,1-.631-.321,3.2,3.2,0,0,1-.948-.922c-.172-.284-.351-.56-.493-.855a2.393,2.393,0,0,1-.265-1.12,6.831,6.831,0,0,1,.056-1.034,3.692,3.692,0,0,1,.28-.747,3.8,3.8,0,0,1,.97-1.306,4.77,4.77,0,0,1,.5-.355,3.12,3.12,0,0,1,1.053-.444,2.9,2.9,0,0,1,1.187-.1,6.89,6.89,0,0,1,1.09.287,2.423,2.423,0,0,1,.616.355,4.042,4.042,0,0,1,.635.586,10.078,10.078,0,0,1,.672.948c.067.1.06.213-.09.295s-.373.254-.545.373c-.272.183-.552.373-.821.549-.2.134-.373.291-.59.426-.422.291-.847.582-1.277.862-.146.1-.2.067-.295-.086-.246-.373-.5-.773-.747-1.153-.056-.086-.067-.149,0-.209a4.88,4.88,0,0,1,.392-.291l.918-.593Z" transform="translate(-14.393 -11.688)"/><path class="r" d="M46.873,26.074H46.5a2.37,2.37,0,0,1-1.157-.3,3.662,3.662,0,0,1-1.284-1.053,3.968,3.968,0,0,1-.672-1.228,3.7,3.7,0,0,1-.131-1.571,3.121,3.121,0,0,1,.373-1.224,4.438,4.438,0,0,1,1.038-1.239,2.859,2.859,0,0,1,.948-.549c.243-.075.489-.123.724-.194a1.982,1.982,0,0,1,.72-.06,4.244,4.244,0,0,1,.642.127,1.687,1.687,0,0,1,.239.045,3.468,3.468,0,0,1,1.12.6,2.053,2.053,0,0,1,.325.265,5.42,5.42,0,0,1,.575.747,5.834,5.834,0,0,1,.429.914,2.523,2.523,0,0,1,.1.556,3.531,3.531,0,0,1,.078.6,3.457,3.457,0,0,1-.116.676A5.49,5.49,0,0,1,50.2,24a3.359,3.359,0,0,1-.373.593,2.658,2.658,0,0,1-.373.429,4.632,4.632,0,0,1-1.034.747,2.945,2.945,0,0,1-1.542.3Zm-1.254-3.565a1.333,1.333,0,0,0,.194.638.661.661,0,0,0,.127.2,1.288,1.288,0,0,0,1.381.34,1.25,1.25,0,0,0,.672-.538c.224-.351.116-.747.138-1.142v-.045a1.243,1.243,0,0,0-.422-.657.985.985,0,0,0-.571-.272,1.269,1.269,0,0,0-1.12.373,1.493,1.493,0,0,0-.4,1.1Z" transform="translate(-27.09 -11.684)"/><path class="r" d="M77.969,21.647V19.471c0-.228.026-.258.25-.258h1.866c.209,0,.231.026.231.235v3.957a.664.664,0,0,0,1.3.235A3.359,3.359,0,0,0,81.7,23.1V19.5c0-.265.022-.291.287-.291h1.833c.228,0,.254.045.254.269v4.154a2.612,2.612,0,0,1-.134.649,2.9,2.9,0,0,1-.2.623,3.434,3.434,0,0,1-.44.642,2.661,2.661,0,0,1-1.321.81,2.27,2.27,0,0,1-.608.067h-.817a2.143,2.143,0,0,1-1.09-.3,2.665,2.665,0,0,1-.747-.567,2.456,2.456,0,0,1-.549-.944c-.052-.187-.119-.373-.175-.552a1,1,0,0,1-.041-.254Z" transform="translate(-48.854 -12.04)"/><path class="r" d="M107.8,17.145V13.382a1.926,1.926,0,0,1,.373-1.075,3.2,3.2,0,0,1,.877-.877,2.4,2.4,0,0,1,.612-.25A7.705,7.705,0,0,1,111.4,11.1h.407c.134,0,.164.045.164.157v1.926c0,.127-.075.157-.183.157h-1.03a.437.437,0,0,0-.459.426.612.612,0,0,1,0,.082c-.049.213-.049.213.168.216h1.239c.254,0,.272.022.272.265v1.751c0,.153-.045.213-.2.213h-1.359c-.142,0-.187.041-.187.187V20.96c0,.22-.026.243-.246.243h-1.93c-.25,0-.265,0-.265-.269V17.16Z" transform="translate(-67.556 -6.951)"/><path class="r" d="M65,26.27H63.545c-.22,0-.235,0-.235-.231V24.456c0-.258,0-.261.25-.261h2.09A.646.646,0,0,0,65.886,24a.369.369,0,0,0-.146-.216c-.228-.119-.478-.2-.709-.317s-.541-.291-.806-.44a.933.933,0,0,1-.213-.146,2.15,2.15,0,0,1-.552-.915,2.665,2.665,0,0,1-.056-1.1A1.448,1.448,0,0,1,63.818,20a2.1,2.1,0,0,1,.832-.6,2.139,2.139,0,0,1,.784-.194h2.24c.314,0,.325,0,.321.321v1.452c0,.235-.019.254-.25.258H66.08c-.153,0-.276.041-.3.187s.09.205.209.272a11.3,11.3,0,0,1,1.579.817,2.087,2.087,0,0,1,.78,1.1,1.564,1.564,0,0,1,.075.705A2.546,2.546,0,0,1,68,25.43a2.288,2.288,0,0,1-.851.653,1.866,1.866,0,0,1-.747.161C65.938,26.288,65.467,26.27,65,26.27Z" transform="translate(-39.679 -12.033)"/><path class="r" d="M98.012,19.991a6.445,6.445,0,0,1,.575-.534,1.456,1.456,0,0,1,.888-.25h.373c.127,0,.179.063.179.183V21.3c0,.116-.06.153-.172.164-.265.019-.53.037-.791.078a.8.8,0,0,0-.687.713,3.77,3.77,0,0,0-.056.888v2.9c0,.2-.026.228-.224.228H96.049c-.19,0-.209-.026-.209-.22V19.48c0-.246.022-.272.269-.272h1.657c.231,0,.254.026.254.25Z" transform="translate(-60.066 -12.037)"/><rect class="s" width="46" height="22" transform="translate(0 -0.351)"/></g></g></g></svg>