<svg xmlns="http://www.w3.org/2000/svg" width="36.587" height="22.492" viewBox="0 0 36.587 22.492"><defs><style>.a{fill:#ff5f00;}.b{fill:#eb001b;}.c{fill:#f79e1b;}</style></defs><g transform="translate(-621.125 -60.225)"><rect class="a" width="9.896" height="17.844" transform="translate(634.321 62.624)"/><path class="b" d="M64.045,14.546A11.081,11.081,0,0,1,68.393,5.7a11.428,11.428,0,0,0-7.047-2.4,11.246,11.246,0,1,0,0,22.492,11.428,11.428,0,0,0,7.047-2.4A11.081,11.081,0,0,1,64.045,14.546Z" transform="translate(571.025 56.925)"/><path class="c" d="M80.643,14.546A11.231,11.231,0,0,1,69.4,25.792a11.428,11.428,0,0,1-7.047-2.4A11.081,11.081,0,0,0,66.7,14.546,11.219,11.219,0,0,0,62.2,5.7a11.428,11.428,0,0,1,7.047-2.4A11.264,11.264,0,0,1,80.643,14.546Z" transform="translate(577.069 56.925)"/><path class="c" d="M73.75,15.65v-.3h0v.3Zm.75,0V15.2h-.15l-.15.3v-.3h-.15v.45h.15v-.3l.15.3h.15l.15-.3-.15.3Z" transform="translate(582.763 62.869)"/></g></svg>