<svg xmlns="http://www.w3.org/2000/svg" xmlns:xlink="http://www.w3.org/1999/xlink" width="56.98" height="18.443" viewBox="0 0 56.98 18.443"><defs><style>.a{fill:url(#a);}</style><linearGradient id="a" x1="-1.767" y1="11.464" x2="-1.766" y2="11.451" gradientUnits="objectBoundingBox"><stop offset="0" stop-color="#222357"/><stop offset="1" stop-color="#254aa5"/></linearGradient></defs><path class="a" d="M33.39,10.848c0,2.549,2.249,4.049,4.049,4.8,1.8.9,2.4,1.5,2.4,2.249,0,1.2-1.5,1.649-2.7,1.8a12,12,0,0,1-4.8-1.05l-.9,3.9a14.133,14.133,0,0,0,5.1.9c4.8,0,7.947-2.4,7.947-6.148,0-4.648-6.448-4.948-6.448-7.047,0-.6.6-1.35,1.949-1.5a8.173,8.173,0,0,1,4.5.75l.75-3.749A8.78,8.78,0,0,0,41.187,5c-4.5,0-7.647,2.4-7.8,5.848M53.332,5.3a1.936,1.936,0,0,0-1.949,1.35l-6.9,16.344h4.8l.9-2.7h5.848l.6,2.7H60.98L57.231,5.3h-3.9m.6,4.8,1.35,6.748H51.533l2.4-6.748M27.542,5.3,23.793,22.994h4.648L32.19,5.15H27.542m-6.748.15L16,17.446,14.046,7.1a1.983,1.983,0,0,0-2.1-1.8H4.15L4,5.75a15.807,15.807,0,0,1,4.5,1.5c.75.3.9.75,1.05,1.5l3.6,14.245h4.8l7.5-17.844H20.794" transform="translate(-4 -5)"/></svg>